<?xml version="1.0" encoding="UTF-8"?>
<svg xmlns="http://www.w3.org/2000/svg" width="73" height="82" viewBox="0 0 73 82" fill="none">
  <path fill-rule="evenodd" clip-rule="evenodd" d="M11.9315 74.47L16.1403 78.8231L18.5573 74.5936V45.8335C18.557 45.645 18.6168 45.4613 18.7281 45.3092C18.8394 45.1571 18.9964 45.0445 19.1761 44.9877C24.6008 43.2691 28.2449 38.2882 28.2449 32.593C28.2449 25.4247 22.4129 19.5927 15.2446 19.5927C8.07634 19.5927 2.24435 25.4247 2.24435 32.593C2.24435 38.2882 5.88895 43.2691 11.3131 44.9877C11.4928 45.0446 11.6496 45.1572 11.7608 45.3094C11.872 45.4615 11.9318 45.6451 11.9315 45.8335V55.1117L14.682 56.8749C14.8071 56.955 14.9101 57.0653 14.9814 57.1957C15.0527 57.326 15.0901 57.4722 15.0901 57.6208C15.0901 57.7693 15.0527 57.9155 14.9814 58.0459C14.9101 58.1762 14.8071 58.2865 14.682 58.3666L11.9315 60.1292V60.7592L14.6815 62.5218C14.936 62.6846 15.0898 62.9651 15.0898 63.2679C15.0898 63.5686 14.936 63.8491 14.6815 64.0135L11.9315 65.7767V66.4045L14.682 68.1672C14.9365 68.3316 15.0898 68.6126 15.0898 68.9133C15.0898 69.2155 14.936 69.4966 14.6815 69.6588L11.9315 71.422V74.47ZM16.3237 81.1727C16.0851 81.1727 15.855 81.0773 15.6869 80.9039L10.4085 75.4447C10.2486 75.2792 10.1593 75.0581 10.1593 74.828V70.9384C10.1593 70.6361 10.313 70.3551 10.5676 70.1923L12.5614 68.9133L10.5676 67.6353C10.4423 67.5554 10.3393 67.4451 10.2679 67.3148C10.1966 67.1845 10.1592 67.0383 10.1593 66.8897V65.2909C10.1593 64.9887 10.313 64.7076 10.5676 64.5454L12.5614 63.2674L10.5676 61.9884C10.4423 61.9085 10.3392 61.7983 10.2679 61.6679C10.1965 61.5376 10.1591 61.3914 10.1593 61.2428V59.644C10.1593 59.3428 10.313 59.0607 10.5676 58.8979L12.5614 57.6205L10.5676 56.3431C10.4425 56.2629 10.3396 56.1527 10.2682 56.0224C10.1969 55.8921 10.1594 55.746 10.1593 55.5975V46.4661C4.33842 44.3397 0.472168 38.846 0.472168 32.593C0.472168 24.448 7.09904 17.8206 15.2446 17.8206C23.3902 17.8206 30.0171 24.448 30.0171 32.593C30.0171 38.8455 26.1514 44.3397 20.33 46.4666V74.828C20.33 74.9833 20.2897 75.1345 20.2133 75.2676L17.0926 80.7284C16.9548 80.9702 16.7103 81.1324 16.4335 81.1674C16.3964 81.1711 16.3598 81.1727 16.3232 81.1727H16.3237Z" fill="#ED1C24"></path>
  <path fill-rule="evenodd" clip-rule="evenodd" d="M15.2444 25.9658C13.2383 25.9658 11.6067 27.598 11.6067 29.6024C11.6075 30.5669 11.991 31.4916 12.6731 32.1736C13.3551 32.8555 14.2799 33.2389 15.2444 33.2396C16.2088 33.2389 17.1336 32.8555 17.8156 32.1736C18.4977 31.4916 18.8812 30.5669 18.8821 29.6024C18.8821 27.598 17.2499 25.9658 15.2444 25.9658ZM15.2444 35.0118C12.2616 35.0118 9.83447 32.5858 9.83447 29.603C9.83447 26.6191 12.2616 24.1936 15.2444 24.1936C18.2272 24.1936 20.6537 26.6191 20.6537 29.6024C20.6537 32.5858 18.2272 35.0113 15.2449 35.0113L15.2444 35.0118Z" fill="#ED1C24"></path>
  <path fill-rule="evenodd" clip-rule="evenodd" d="M15.2444 30.4888C6.83845 30.4888 0 23.6504 0 15.2449C0 6.84004 6.83845 0 15.2444 0C21.5245 0 27.2483 3.94314 29.4871 9.81012C29.5709 10.0299 29.564 10.2739 29.468 10.4886C29.3719 10.7033 29.1946 10.871 28.9749 10.955C28.7551 11.0384 28.5112 11.0312 28.2968 10.935C28.0823 10.8387 27.9148 10.6613 27.8311 10.4417C25.8531 5.2577 20.7943 1.77219 15.2444 1.77219C7.81575 1.77219 1.77218 7.81628 1.77218 15.2455C1.77218 22.672 7.81575 28.7161 15.2444 28.7161C16.6708 28.7161 18.0814 28.4912 19.4362 28.0479C19.5468 28.0117 19.6634 27.9976 19.7794 28.0065C19.8954 28.0153 20.0085 28.047 20.1123 28.0995C20.216 28.1521 20.3084 28.2246 20.3842 28.3128C20.46 28.4011 20.5176 28.5035 20.5538 28.614C20.59 28.7246 20.6041 28.8412 20.5952 28.9571C20.5864 29.0731 20.5548 29.1862 20.5022 29.29C20.4497 29.3938 20.3772 29.4862 20.2889 29.562C20.2006 29.6377 20.0983 29.6954 19.9877 29.7316C18.4567 30.2335 16.8556 30.4891 15.2444 30.4888Z" fill="#ED1C24"></path>
  <path fill-rule="evenodd" clip-rule="evenodd" d="M48.7006 71.9211C48.6189 71.9211 48.5367 71.9105 48.4566 71.8861L41.1558 69.7979C40.9347 69.7346 40.747 69.5878 40.6324 69.3885L38.6868 66.0191C38.6126 65.8906 38.5719 65.7455 38.5685 65.5972C38.565 65.4488 38.599 65.302 38.6672 65.1702L39.7548 63.065L37.3898 62.9563C37.2413 62.9492 37.0969 62.905 36.97 62.8276C36.843 62.7503 36.7376 62.6422 36.6633 62.5135L35.8636 61.1289C35.7893 61.0004 35.7485 60.8552 35.745 60.7067C35.7416 60.5582 35.7756 60.4113 35.844 60.2794L36.9321 58.1753L34.566 58.0661C34.4176 58.059 34.2732 58.0147 34.1463 57.9374C34.0194 57.86 33.9139 57.752 33.8396 57.6233L33.0404 56.2387C32.9661 56.1101 32.9254 55.9649 32.9219 55.8165C32.9185 55.668 32.9525 55.5211 33.0208 55.3892L34.1084 53.2867L31.7434 53.1753C31.5951 53.1683 31.451 53.1243 31.3241 53.0474C31.1972 52.9704 31.0916 52.8629 31.0169 52.7346L26.4512 44.8261C25.2864 45.029 24.1012 45.0903 22.9217 45.0085C22.8055 45.0006 22.6921 44.9699 22.5878 44.9182C22.4835 44.8664 22.3905 44.7946 22.314 44.7068C22.2375 44.619 22.1791 44.517 22.142 44.4067C22.105 44.2963 22.0901 44.1797 22.0982 44.0636C22.1058 43.9473 22.1364 43.8338 22.1881 43.7294C22.2398 43.625 22.3116 43.5319 22.3994 43.4554C22.4873 43.3788 22.5893 43.3204 22.6998 43.2835C22.8103 43.2465 22.9269 43.2318 23.0431 43.24C24.2771 43.3249 25.5105 43.2347 26.711 42.9685C26.8949 42.9281 27.0869 42.9473 27.2592 43.0233C27.4315 43.0992 27.5751 43.2281 27.6693 43.3912L32.3092 51.4275L35.5714 51.5792C35.7198 51.5863 35.8639 51.6306 35.9907 51.7079C36.1175 51.7852 36.2229 51.8931 36.2971 52.0217C36.3714 52.1503 36.4121 52.2955 36.4157 52.444C36.4193 52.5925 36.3855 52.7394 36.3175 52.8715L34.8174 55.7731L35.1324 56.3177L38.3952 56.4694C38.5435 56.4765 38.6877 56.5208 38.8145 56.5981C38.9412 56.6754 39.0466 56.7833 39.1208 56.9119C39.1951 57.0405 39.2359 57.1857 39.2394 57.3342C39.243 57.4827 39.2093 57.6296 39.1413 57.7617L37.6406 60.6633L37.9556 61.2085L41.2184 61.3596C41.3666 61.3667 41.5108 61.4108 41.6377 61.4878C41.7646 61.5649 41.8702 61.6725 41.9448 61.8008C42.0954 62.0627 42.1029 62.3841 41.9639 62.6519L40.4643 65.5525L41.9883 68.1922L47.8092 69.8573L47.7874 64.9851L33.4074 40.0796C33.3131 39.9165 33.2732 39.7277 33.2935 39.5404C33.3138 39.3531 33.3932 39.1772 33.5203 39.0381C37.359 34.8367 38.0245 28.702 35.1769 23.7693C33.4408 20.7616 30.6377 18.6113 27.2827 17.712C23.9282 16.8132 20.4251 17.2745 17.4179 19.0117C17.1751 19.1522 16.9248 19.3071 16.6734 19.4752C16.5768 19.5401 16.4683 19.5854 16.3541 19.6083C16.2399 19.6312 16.1224 19.6313 16.0081 19.6086C15.8939 19.586 15.7853 19.541 15.6885 19.4762C15.5918 19.4114 15.5088 19.3282 15.4442 19.2312C15.3795 19.1347 15.3344 19.0263 15.3116 18.9123C15.2888 18.7983 15.2887 18.681 15.3113 18.5669C15.3339 18.4529 15.3788 18.3445 15.4434 18.2478C15.508 18.1511 15.591 18.0682 15.6876 18.0036C15.9635 17.8188 16.2452 17.6428 16.5324 17.476C19.9484 15.5023 23.9297 14.98 27.7414 16.0008C31.553 17.0216 34.7389 19.4661 36.7115 22.8832C39.838 28.2974 39.2372 34.9895 35.2591 39.7418L49.4398 64.3042C49.5172 64.4368 49.558 64.5885 49.5586 64.7433L49.5867 71.0313C49.5871 71.1479 49.5645 71.2635 49.5202 71.3713C49.4759 71.4792 49.4107 71.5773 49.3285 71.6599C49.2462 71.7426 49.1485 71.8082 49.0408 71.853C48.9331 71.8978 48.8172 71.921 48.7006 71.9211Z" fill="#ED1C24"></path>
  <path fill-rule="evenodd" clip-rule="evenodd" d="M64.7458 49.5587C64.592 49.5587 64.4383 49.5178 64.3025 49.4404L60.9337 47.4943C60.8052 47.4201 60.6974 47.3149 60.6201 47.1882C60.5428 47.0616 60.4986 46.9176 60.4914 46.7694L60.3816 44.4022L58.2786 45.4893C58.0102 45.6304 57.69 45.6229 57.428 45.4713L56.044 44.6722C55.9151 44.5978 55.8069 44.4921 55.7296 44.365C55.6522 44.2379 55.608 44.0933 55.6012 43.9446L55.492 41.5796L53.3878 42.6666C53.2559 42.7347 53.109 42.7687 52.9605 42.7656C52.8121 42.7624 52.6667 42.7222 52.5378 42.6486L51.1538 41.8495C51.0251 41.7749 50.9171 41.6692 50.8398 41.5421C50.7626 41.415 50.7185 41.2705 50.7115 41.1219L50.6017 38.7569L48.4981 39.844C48.3661 39.9122 48.2191 39.9461 48.0705 39.9426C47.922 39.9391 47.7767 39.8982 47.6481 39.8238L39.7406 35.2587C38.833 36.0167 37.8374 36.6627 36.7753 37.1825C36.6707 37.2337 36.557 37.2638 36.4407 37.271C36.3245 37.2783 36.2079 37.2625 36.0978 37.2248C35.9876 37.187 35.8859 37.1278 35.7986 37.0508C35.7113 36.9737 35.64 36.8802 35.5888 36.7755C35.5376 36.6709 35.5076 36.5572 35.5003 36.441C35.4931 36.3247 35.5088 36.2082 35.5466 36.098C35.5844 35.9878 35.6435 35.8862 35.7206 35.7988C35.7976 35.7115 35.8912 35.6402 35.9958 35.589C37.1031 35.0484 38.1274 34.3522 39.0375 33.5215C39.1764 33.3947 39.352 33.3153 39.539 33.2947C39.726 33.2741 39.9147 33.3134 40.0779 33.4069L48.1142 38.0479L51.0159 36.5472C51.1478 36.479 51.2948 36.4449 51.4433 36.4483C51.5918 36.4517 51.7371 36.4924 51.8657 36.5667C51.9944 36.6409 52.1023 36.7464 52.1795 36.8733C52.2567 37.0002 52.3008 37.1444 52.3076 37.2928L52.4593 40.5551L53.0044 40.8706L55.9056 39.3699C56.0375 39.3018 56.1845 39.2679 56.333 39.2714C56.4815 39.2749 56.6267 39.3156 56.7553 39.3898C56.884 39.464 56.9919 39.5694 57.0692 39.6961C57.1465 39.8229 57.1908 39.9671 57.1979 40.1155L57.3495 43.3799L57.8946 43.6933L60.7953 42.1947C60.927 42.1256 61.0741 42.0911 61.2229 42.0942C61.3716 42.0974 61.5171 42.1381 61.6458 42.2127C61.9072 42.3644 62.0738 42.6375 62.0881 42.9403L62.2397 46.2025L64.8789 47.7255L70.7533 46.2577L68.2981 42.0505L43.391 27.6693C43.2279 27.5753 43.099 27.4317 43.023 27.2594C42.947 27.0871 42.9279 26.895 42.9684 26.7111C44.1923 21.1544 41.701 15.5069 36.7689 12.6604C33.7617 10.9232 30.2582 10.4635 26.9037 11.3628C23.5491 12.26 20.7461 14.4124 19.01 17.418C18.8689 17.6636 18.73 17.9239 18.5974 18.1933C18.546 18.2978 18.4746 18.3911 18.3871 18.4679C18.2997 18.5447 18.1979 18.6036 18.0877 18.6411C17.9775 18.6786 17.861 18.6941 17.7448 18.6866C17.6287 18.6791 17.5151 18.6488 17.4107 18.5974C17.3062 18.546 17.2129 18.4745 17.1361 18.3871C17.0592 18.2996 17.0004 18.1979 16.9628 18.0877C16.9253 17.9775 16.9099 17.861 16.9174 17.7448C16.9249 17.6286 16.9552 17.5151 17.0066 17.4106C17.1572 17.1057 17.3141 16.8103 17.4753 16.5319C19.448 13.117 22.6334 10.6724 26.445 9.64948C30.2571 8.6287 34.2379 9.15314 37.655 11.1247C43.0692 14.2518 45.8955 20.3478 44.826 26.4508L69.3884 40.6325C69.5215 40.7105 69.6323 40.8213 69.7103 40.9538L72.8781 46.3849C72.9479 46.5036 72.989 46.6368 72.9981 46.7741C73.0072 46.9114 72.9842 47.0489 72.9308 47.1757C72.8774 47.3025 72.7951 47.4151 72.6905 47.5044C72.5859 47.5938 72.4618 47.6575 72.3283 47.6905L64.9606 49.5327C64.8901 49.5496 64.8174 49.5587 64.7458 49.5587Z" fill="#ED1C24"></path>
</svg>
