<?xml version="1.0" encoding="UTF-8"?>
<svg xmlns="http://www.w3.org/2000/svg" width="70" height="80" viewBox="0 0 70 80" fill="none">
  <path fill-rule="evenodd" clip-rule="evenodd" d="M35.5721 17.6123H33.9601V0.806812C33.9601 0.361402 33.5987 0 33.1533 0C32.7079 0 32.3465 0.361402 32.3465 0.806812V17.6125C31.6877 17.5907 30.8928 17.543 30.8458 18.4193V21.4471C30.8458 21.661 30.9313 21.8663 31.083 22.0177L33.9584 24.8934V26.0773C32.1763 26.4879 31.0405 28.5031 31.6187 30.239L6.47707 47.1514H0.806813C0.700861 47.1514 0.595946 47.1723 0.498059 47.2128C0.400172 47.2534 0.31123 47.3128 0.23631 47.3877C0.161391 47.4626 0.101962 47.5516 0.0614154 47.6495C0.0208693 47.7474 0 47.8523 0 47.9582V78.2603C4.36711e-05 78.4743 0.0850614 78.6795 0.236359 78.8307C0.387656 78.982 0.592846 79.0671 0.806813 79.0671H68.7237C68.9376 79.0671 69.1428 78.982 69.2941 78.8307C69.4454 78.6795 69.5304 78.4743 69.5305 78.2603V47.9581C69.5305 47.8521 69.5096 47.7472 69.4691 47.6493C69.4285 47.5514 69.3691 47.4625 69.2942 47.3876C69.2193 47.3126 69.1303 47.2532 69.0324 47.2127C68.9345 47.1721 68.8296 47.1512 68.7237 47.1512H63.0534L37.9134 30.2388C38.0162 29.8468 38.119 29.4172 38.0167 29.0161C37.8202 28.3486 36.8225 28.2738 36.5306 28.9072C36.3425 29.7689 36.3662 30.3851 35.4156 30.8177C35.0212 30.9914 34.5137 30.9906 34.1182 30.8196C32.4257 30.113 32.9711 27.5443 34.8122 27.5899C34.9551 27.5817 35.0932 27.5355 35.2123 27.456C35.3085 27.3918 35.3899 27.3078 35.4511 27.2097C35.4836 27.1575 35.5095 27.1015 35.5302 27.043C35.5348 27.0325 35.5363 27.0206 35.5399 27.0099C35.5444 26.9992 35.546 26.987 35.5497 26.9762C35.5538 26.9533 35.5604 26.9304 35.5625 26.9071C35.5666 26.8908 35.5668 26.8732 35.5689 26.8566C35.5694 26.8483 35.5714 26.8393 35.5706 26.8309C35.5704 26.8243 35.573 26.8169 35.5722 26.8103V24.8932L38.4476 22.0175C38.5227 21.9427 38.5824 21.8537 38.6231 21.7558C38.6638 21.6579 38.6847 21.5529 38.6848 21.4469V18.4191C38.6336 17.54 37.8482 17.5919 37.1858 17.6123V0.806812C37.1855 0.592939 37.1004 0.387926 36.9492 0.236695C36.7979 0.0854636 36.5929 0.00034847 36.379 0C36.1651 8.731e-05 35.9599 0.0851186 35.8086 0.236406C35.6573 0.387694 35.5723 0.592859 35.5722 0.806812L35.5721 17.6123ZM67.9169 48.7649V77.4533H1.61362V48.7649H67.9169ZM19.5167 53.552V72.6663C19.5343 73.7205 21.1114 73.7316 21.1303 72.6663V53.5522C21.1137 52.4981 19.5366 52.4866 19.5167 53.552ZM25.2934 53.552V72.6663C25.2971 73.7151 26.9019 73.7261 26.907 72.6663V53.5522C26.9032 52.5033 25.2985 52.4922 25.2934 53.552ZM59.952 53.552V72.6663C59.9558 73.7151 61.5605 73.7261 61.5656 72.6663V53.5522C61.5619 52.5033 59.9571 52.4922 59.952 53.552ZM13.7415 53.552V72.6663C13.7455 73.7151 15.35 73.7261 15.3551 72.6663V53.5522C15.3512 52.5033 13.7466 52.4922 13.7415 53.552ZM7.96484 53.552V72.6663C7.96863 73.7151 9.57336 73.7261 9.57847 72.6663V53.5522C9.57451 52.5033 7.96978 52.4922 7.96484 53.552ZM31.07 53.552V72.6663C31.0738 73.7151 32.6785 73.7261 32.6836 72.6663V53.5522C32.6799 52.5033 31.0751 52.4922 31.07 53.552ZM42.6235 53.552V72.6663C42.6273 73.7151 44.232 73.7261 44.2371 72.6663V53.5522C44.2333 52.5033 42.6286 52.4922 42.6235 53.552ZM36.8468 53.552V72.6663C36.8508 73.7151 38.4554 73.7261 38.4605 72.6663V53.5522C38.4565 52.5033 36.8518 52.4922 36.8468 53.552ZM48.4003 53.552V72.6663C48.4041 73.7151 50.0089 73.7261 50.014 72.6663V53.5522C50.01 52.5033 48.4053 52.4922 48.4003 53.552ZM54.1754 53.552V72.6663C54.1793 73.7151 55.7839 73.7261 55.789 72.6663V53.5522C55.7852 52.5033 54.1805 52.4922 54.1754 53.552ZM36.9065 31.7703L48.8102 47.1514H60.1635L37.0727 31.6184V31.6187C37.018 31.6709 36.9626 31.7208 36.9065 31.7703ZM32.4578 31.6182L9.36696 47.1512H20.7203L32.624 31.7701C32.5678 31.7207 32.5125 31.6708 32.4578 31.6184V31.6182ZM34.1021 32.4957L22.7599 47.1512H46.7704L35.4282 32.4957C34.9907 32.5846 34.5397 32.5846 34.1021 32.4957ZM32.4594 19.226H37.0712V21.1127L34.7652 23.4181L32.4594 21.1129V19.226Z" fill="#ED1C24"></path>
</svg>
