<?xml version="1.0" encoding="UTF-8"?>
<svg xmlns="http://www.w3.org/2000/svg" width="62" height="78" viewBox="0 0 62 78" fill="none">
  <path d="M30.4394 77.4398C30.6236 77.4799 30.8115 77.5003 31 77.5005C31.1901 77.5006 31.3798 77.4807 31.5657 77.4411C34.68 76.7617 62 69.6549 62 29.5577V15.029C62.0004 14.455 61.8187 13.8956 61.481 13.4313C61.1432 12.9671 60.6669 12.622 60.1206 12.4457C43.8185 7.14083 34.7962 1.89149 32.4208 0.407368C31.9947 0.141152 31.5024 0 31 0C30.4976 0 30.0053 0.141152 29.5792 0.407368C27.2038 1.89149 18.1815 7.14083 1.88067 12.4509C1.33411 12.627 0.857529 12.972 0.519562 13.4362C0.181595 13.9005 -0.000323391 14.46 4.31563e-07 15.0342V29.5577C4.31563e-07 69.6549 27.32 76.7617 30.4394 77.4398ZM2.58333 15.029C2.58536 15.0016 2.59554 14.9754 2.61257 14.9537C2.6296 14.9321 2.6527 14.916 2.67892 14.9076C19.2588 9.50716 28.5122 4.1222 31.053 2.60191C33.4929 4.1222 42.7412 9.50716 59.3211 14.9076C59.347 14.9164 59.3697 14.9326 59.3865 14.9542C59.4032 14.9758 59.4133 15.0018 59.4154 15.029V29.5577C59.4167 67.6309 33.9217 74.283 30.9858 74.9172C28.0782 74.283 2.58333 67.6309 2.58333 29.5577V15.029Z" fill="#ED1C24"></path>
  <path d="M29.9668 70.6169C30.6408 70.84 31.3686 70.84 32.0425 70.6169C37.5691 68.7279 42.4495 65.316 46.1217 60.7744C52.3721 53.173 55.5418 42.6704 55.5418 29.5574V20.0818C55.5394 19.3965 55.3247 18.7287 54.9273 18.1704C54.53 17.6121 53.9694 17.1905 53.3228 16.9637C46.1802 14.5081 39.2412 11.4962 32.5695 7.95559C32.0886 7.69239 31.5491 7.55444 31.0008 7.55444C30.4525 7.55444 29.9131 7.69239 29.4321 7.95559C22.7593 11.4957 15.8195 14.5076 8.67629 16.9637C8.02975 17.1906 7.46938 17.6122 7.07223 18.1705C6.67509 18.7289 6.46068 19.3966 6.4585 20.0818V29.5574C6.4585 42.6756 9.63083 53.182 15.8877 60.7835C19.5613 65.3215 24.4415 68.7301 29.9668 70.6169ZM9.04183 20.0818C9.04378 19.9308 9.09237 19.7841 9.18093 19.6617C9.26949 19.5394 9.39369 19.4475 9.53654 19.3985C16.809 16.8988 23.8741 13.8325 30.6669 10.2276C30.7694 10.1726 30.8839 10.1438 31.0002 10.1438C31.1165 10.1438 31.231 10.1726 31.3334 10.2276C38.1257 13.8325 45.1905 16.8988 52.4625 19.3985C52.6056 19.4468 52.7301 19.5384 52.819 19.6606C52.9078 19.7827 52.9566 19.9294 52.9585 20.0805V29.5561C52.9585 36.9419 51.3917 61.5662 31.2327 68.1615C31.0812 68.2138 30.9165 68.2138 30.7651 68.1615C10.6086 61.5662 9.04183 36.9419 9.04183 29.5574V20.0818Z" fill="#ED1C24"></path>
  <path d="M25.9134 51.6669H26.0697C26.6039 51.6445 27.1273 51.5095 27.6057 51.2706C28.0841 51.0318 28.5066 50.6945 28.8455 50.2809L45.6371 29.7899C46.2747 29.0093 46.5781 28.0085 46.4813 27.0053C46.3845 26.0021 45.8954 25.0777 45.1205 24.4334L43.183 22.833C42.7986 22.5143 42.3549 22.2748 41.8776 22.1283C41.4003 21.9817 40.8987 21.931 40.4017 21.979C39.9047 22.027 39.4221 22.1728 38.9817 22.4081C38.5413 22.6433 38.1517 22.9633 37.8355 23.3497L25.4639 38.4492L23.8041 36.6667C23.4575 36.2919 23.0384 35.9914 22.5721 35.7835C22.1058 35.5757 21.6021 35.4648 21.0916 35.4577C20.0629 35.4532 19.074 35.8553 18.3403 36.5763L16.6043 38.3214C15.9049 39.0325 15.5098 39.9879 15.5025 40.9853C15.4953 41.9827 15.8766 42.9438 16.5656 43.665L23.1828 50.5108C23.5369 50.8771 23.9613 51.1682 24.4304 51.3668C24.8996 51.5654 25.4039 51.6675 25.9134 51.6669ZM18.4411 40.1413L20.1771 38.3976C20.2895 38.2791 20.4258 38.1859 20.577 38.1242C20.7283 38.0625 20.8909 38.0337 21.0541 38.0398C21.2167 38.0426 21.377 38.0783 21.5253 38.1449C21.6737 38.2116 21.8069 38.3076 21.917 38.4273L24.5843 41.2909C24.709 41.4269 24.8619 41.534 25.0324 41.6047C25.2029 41.6755 25.3867 41.7081 25.5711 41.7004C25.755 41.6945 25.9355 41.6494 26.1006 41.5681C26.2657 41.4868 26.4115 41.3711 26.5282 41.2289L39.8324 24.9875C39.9329 24.8643 40.0568 24.7622 40.1969 24.687C40.337 24.6119 40.4906 24.5653 40.6489 24.5498C40.8071 24.5343 40.9669 24.5503 41.1189 24.5968C41.271 24.6433 41.4123 24.7195 41.5348 24.8209L43.4723 26.4212C43.7223 26.6292 43.88 26.9276 43.911 27.2513C43.942 27.575 43.8437 27.8979 43.6376 28.1495L26.846 48.6405C26.7389 48.7732 26.6047 48.8815 26.4523 48.9579C26.2999 49.0343 26.1328 49.0772 25.9625 49.0835C25.7915 49.0961 25.6198 49.0695 25.4607 49.0057C25.3015 48.9419 25.159 48.8426 25.0441 48.7154L18.4282 41.8696C18.205 41.6365 18.0815 41.3255 18.0839 41.0028C18.0863 40.6801 18.2145 40.3711 18.4411 40.1413Z" fill="#ED1C24"></path>
</svg>
