<?xml version="1.0" encoding="UTF-8"?>
<svg xmlns="http://www.w3.org/2000/svg" width="62" height="77" viewBox="0 0 62 77" fill="none">
  <path fill-rule="evenodd" clip-rule="evenodd" d="M46.7886 16.4823H55.7444C56.0997 16.4823 56.4403 16.6234 56.6915 16.8746C56.9427 17.1258 57.0838 17.4665 57.0838 17.8217C57.0838 18.1769 56.9427 18.5176 56.6915 18.7688C56.4403 19.02 56.0997 19.1611 55.7444 19.1611H16.5791C16.2239 19.1611 15.8832 19.02 15.632 18.7688C15.3809 18.5176 15.2397 18.1769 15.2397 17.8217V14.3232C15.2397 6.55603 21.5362 0.259521 29.3034 0.259521H32.7249C40.4921 0.259521 46.7886 6.55603 46.7886 14.3232V16.4823ZM17.9185 14.3232C17.9185 8.03539 23.0156 2.93831 29.3034 2.93831H32.7249C39.0127 2.93831 44.1098 8.03539 44.1098 14.3232V16.483H17.9185V14.3232Z" fill="#ED1C24"></path>
  <path d="M16.7255 20.0994C16.8999 20.0756 17.0771 20.0864 17.2473 20.1312C17.4174 20.176 17.5771 20.2538 17.7171 20.3603C17.8572 20.4667 17.9749 20.5997 18.0635 20.7517C18.1521 20.9037 18.21 21.0716 18.2337 21.2459L18.9034 26.1622C18.9034 26.9732 19.2858 28.2383 20.0767 29.4886C20.8522 30.7141 21.9586 31.9819 23.2417 33.1304C24.5235 34.2776 25.9486 35.2748 27.3396 35.9786C28.7466 36.6912 30.0298 37.0582 31.0504 37.0582C32.0717 37.0582 33.3541 36.6912 34.7619 35.9786C36.1528 35.2748 37.5779 34.2776 38.8604 33.1304C40.1429 31.9819 41.2492 30.7141 42.0247 29.4886C42.815 28.2383 43.198 26.9732 43.198 26.1622L43.8677 21.2459C43.8893 21.0698 43.9456 20.8997 44.0334 20.7455C44.1213 20.5913 44.2388 20.4561 44.3794 20.3478C44.5199 20.2394 44.6805 20.1601 44.852 20.1144C45.0234 20.0686 45.2023 20.0574 45.3781 20.0814C45.5539 20.1053 45.7232 20.164 45.8762 20.2539C46.0291 20.3439 46.1627 20.4633 46.2691 20.6053C46.3755 20.7473 46.4526 20.909 46.496 21.0811C46.5394 21.2531 46.5481 21.4321 46.5218 21.6076L45.8634 26.4408C45.8367 27.9436 45.1864 29.5013 44.2883 30.9211C43.3561 32.3944 42.0763 33.8476 40.6458 35.1268C39.2147 36.4072 37.5987 37.5444 35.9713 38.3681C34.3614 39.1838 32.6496 39.737 31.0504 39.737C29.4511 39.737 27.7401 39.1838 26.1294 38.3688C24.5021 37.5451 22.8868 36.4072 21.4549 35.1268C20.0251 33.8476 18.7453 32.3944 17.8125 30.9211C16.9151 29.5013 16.2655 27.9436 16.238 26.4408L15.5797 21.6076C15.5317 21.2556 15.6254 20.899 15.8403 20.6162C16.0552 20.3334 16.3736 20.1475 16.7255 20.0994Z" fill="#ED1C24"></path>
  <path fill-rule="evenodd" clip-rule="evenodd" d="M13.765 46.907V65.1917L9.48159 70.3926C9.28419 70.6323 9.17624 70.9332 9.17621 71.2438V75.1769C9.17621 75.3528 9.21085 75.527 9.27816 75.6895C9.34547 75.852 9.44413 75.9997 9.56851 76.124C9.69288 76.2484 9.84054 76.3471 10.003 76.4144C10.1655 76.4817 10.3397 76.5163 10.5156 76.5163C10.6915 76.5163 10.8657 76.4817 11.0282 76.4144C11.1907 76.3471 11.3383 76.2484 11.4627 76.124C11.5871 75.9997 11.6857 75.852 11.753 75.6895C11.8204 75.527 11.855 75.3528 11.855 75.1769V71.7246L16.1377 66.5238C16.3353 66.284 16.4438 65.9833 16.4438 65.6726V45.9392C18.2538 45.3654 20.1 44.9126 21.9701 44.5838V64.6888C21.9701 65.044 22.1112 65.3847 22.3624 65.6359C22.6136 65.8871 22.9543 66.0282 23.3095 66.0282H38.7139C39.0691 66.0282 39.4098 65.8871 39.661 65.6359C39.9122 65.3847 40.0533 65.044 40.0533 64.6888V44.5878C41.8409 44.9034 43.6066 45.332 45.3399 45.8709V65.6726C45.3399 65.9833 45.4484 66.284 45.6453 66.5238L49.9287 71.7246V75.1769C49.9287 75.5322 50.0698 75.8728 50.321 76.124C50.5722 76.3752 50.9129 76.5163 51.2681 76.5163C51.6233 76.5163 51.964 76.3752 52.2152 76.124C52.4664 75.8728 52.6075 75.5322 52.6075 75.1769V71.2438C52.6074 70.9332 52.4995 70.6323 52.3021 70.3926L48.0187 65.1917V46.8199C49.4278 47.3769 50.7949 48.0349 52.1092 48.7888C54.5476 50.1979 56.3799 51.7542 57.588 53.2564C58.8089 54.7746 59.3212 56.1441 59.3212 57.2083V75.1763C59.3212 75.5315 59.4623 75.8722 59.7135 76.1234C59.9647 76.3745 60.3054 76.5157 60.6606 76.5157C61.0158 76.5157 61.3565 76.3745 61.6077 76.1234C61.8589 75.8722 62 75.5315 62 75.1763V57.2083C62 55.3224 61.1214 53.3756 59.6761 51.5781C58.2182 49.7652 56.1093 48.0066 53.4493 46.4696C48.1232 43.3924 40.4719 41.1355 30.9997 41.1355C21.5275 41.1355 13.8755 43.3924 8.55004 46.4696C5.89 48.0066 3.78179 49.7646 2.32385 51.5781C0.877974 53.3762 0 55.3231 0 57.2083V75.1763C0 75.5315 0.141114 75.8722 0.392299 76.1234C0.643485 76.3745 0.984167 76.5157 1.3394 76.5157C1.69463 76.5157 2.03531 76.3745 2.28649 76.1234C2.53768 75.8722 2.67879 75.5315 2.67879 75.1763V57.2083C2.67879 56.1441 3.19111 54.7746 4.4113 53.257C5.61944 51.7542 7.45173 50.1979 9.8901 48.7888C11.137 48.0733 12.4317 47.4445 13.765 46.907ZM37.3739 44.1887C35.2583 43.9365 33.1295 43.8114 30.999 43.8143C28.7656 43.8143 26.6466 43.9456 24.6482 44.186V63.3494H37.3739V44.1887Z" fill="#ED1C24"></path>
</svg>
