<?xml version="1.0" encoding="UTF-8"?>
<svg xmlns="http://www.w3.org/2000/svg" width="61" height="73" viewBox="0 0 61 73" fill="none">
  <path d="M60.8043 15.5665C60.7425 15.2034 60.5451 14.9218 60.2522 14.759L46.0704 0.577228C45.9075 0.284313 45.6259 0.0869102 45.263 0.0251676C45.1585 0.0017545 45.051 -0.00538309 44.9443 0.00400697H10.9484C8.88036 0.00400697 7.29896 1.5854 7.29896 3.65349V7.30297H3.64948C1.58139 7.30297 0 8.88436 0 10.9524V69.3451C0 71.4132 1.58139 72.9946 3.64948 72.9946H49.8769C51.945 72.9946 53.5263 71.4132 53.5263 69.3451V65.6957H57.1758C59.2439 65.6957 60.8253 64.1143 60.8253 62.0462V15.8853C60.8348 15.7786 60.8277 15.671 60.8043 15.5665ZM56.6893 14.6022H47.4438C46.7139 14.6022 46.2274 14.1157 46.2274 13.3858V4.14033L56.6893 14.6022ZM51.0933 69.3451C51.0933 70.075 50.6068 70.5616 49.8769 70.5616H3.64934C2.91944 70.5616 2.43289 70.075 2.43289 69.3451V10.9527C2.43289 10.3444 2.91944 9.73629 3.64934 9.73629H7.29882V62.0462C7.29882 64.1143 8.88021 65.6957 10.9483 65.6957H51.0932V69.3451H51.0933ZM58.3923 62.0462C58.3923 62.7761 57.9057 63.2626 57.1758 63.2626H10.9484C10.2185 63.2626 9.732 62.7761 9.732 62.0462V3.65363C9.732 3.04534 10.2185 2.43719 10.9484 2.43719H43.7942V13.3858C43.7942 15.4539 45.3756 17.0353 47.4437 17.0353H58.3923V62.0462Z" fill="#ED1C24"></path>
  <path d="M17.0309 17.0352H38.9281C39.658 17.0352 40.1445 16.5486 40.1445 15.8187C40.1445 15.0888 39.658 14.6023 38.9281 14.6023H17.0309C16.301 14.6023 15.8145 15.0888 15.8145 15.8187C15.8145 16.5486 16.301 17.0352 17.0309 17.0352ZM15.8145 23.1177C15.8145 23.8476 16.301 24.3341 17.0309 24.3341H53.5261C54.256 24.3341 54.7426 23.8476 54.7426 23.1177C54.7426 22.3878 54.256 21.9013 53.5261 21.9013H17.0309C16.301 21.9013 15.8145 22.3878 15.8145 23.1177ZM53.5263 29.2004H17.0309C16.301 29.2004 15.8145 29.6869 15.8145 30.4168C15.8145 31.1467 16.301 31.6333 17.0309 31.6333H53.5261C54.256 31.6333 54.7426 31.1467 54.7426 30.4168C54.7426 29.6869 54.2562 29.2004 53.5263 29.2004ZM53.5263 36.4993H17.0309C16.301 36.4993 15.8145 36.9859 15.8145 37.7158C15.8145 38.4457 16.301 38.9322 17.0309 38.9322H53.5261C54.256 38.9322 54.7426 38.4457 54.7426 37.7158C54.7426 36.9859 54.2562 36.4993 53.5263 36.4993ZM53.5263 43.7984H17.0309C16.301 43.7984 15.8145 44.285 15.8145 45.0149C15.8145 45.7448 16.301 46.2313 17.0309 46.2313H53.5261C54.256 46.2313 54.7426 45.7448 54.7426 45.0149C54.7426 44.285 54.2562 43.7984 53.5263 43.7984ZM53.5263 51.0975H17.0309C16.301 51.0975 15.8145 51.5841 15.8145 52.314C15.8145 53.0439 16.301 53.5304 17.0309 53.5304H53.5261C54.256 53.5304 54.7426 53.0439 54.7426 52.314C54.7426 51.5841 54.2562 51.0975 53.5263 51.0975Z" fill="#ED1C24"></path>
</svg>
