<?xml version="1.0" encoding="UTF-8"?>
<svg xmlns="http://www.w3.org/2000/svg" width="101" height="58" viewBox="0 0 101 58" fill="none">
  <path fill-rule="evenodd" clip-rule="evenodd" d="M32.1543 51.2891H23.4746C23.2773 51.2891 22.8828 51.0918 22.6855 50.8945C22.4883 50.5 22.291 50.3027 22.4883 49.9082V49.1191C22.4883 45.9629 19.9238 43.3984 16.7676 43.3984C13.4141 43.3984 10.8496 45.9629 10.8496 49.1191C10.8496 49.3164 10.8496 49.7109 11.0469 49.9082C11.0469 50.3027 10.8496 50.5 10.6523 50.8945C10.4551 51.0918 10.0605 51.2891 9.86328 51.2891H1.38086C0.789062 51.2891 0.197266 50.6973 0.197266 50.1055L0 35.9023C0 35.7051 0 35.7051 0.197266 35.5078L5.32617 18.9375C5.52344 18.3457 5.91797 18.1484 6.50977 18.1484H32.1543C32.7461 18.1484 33.3379 18.543 33.3379 19.332V50.1055C33.3379 50.6973 32.7461 51.2891 32.1543 51.2891ZM24.8555 48.9219H30.9707V20.5156H7.29883L2.36719 36.0996L2.56445 48.9219H8.48242C8.67969 44.582 12.2305 41.0312 16.7676 41.0312C21.1074 41.0312 24.6582 44.582 24.8555 48.9219Z" fill="#ED1C24"></path>
  <path fill-rule="evenodd" clip-rule="evenodd" d="M12.2305 41.0312H6.70703C6.11523 41.0312 5.52344 40.4395 5.52344 39.8477V34.5215L8.28516 23.6719C8.28516 23.2773 8.87695 22.8828 9.27148 22.8828H23.4746C24.2637 22.8828 24.6582 23.4746 24.6582 24.0664V34.7188C24.6582 35.3105 24.2637 35.9023 23.4746 35.9023H13.4141V39.8477C13.4141 40.4395 13.0195 41.0312 12.2305 41.0312ZM7.89062 38.6641H11.0469V34.7188C11.0469 34.127 11.6387 33.5352 12.2305 33.5352H22.291V25.25H10.2578L7.89062 34.916V38.6641ZM89.9531 51.2891H77.3281C77.1309 51.2891 76.7363 51.0918 76.5391 50.8945C76.3418 50.5 76.1445 50.3027 76.1445 49.9082C76.3418 49.7109 76.3418 49.3164 76.3418 49.1191C76.3418 47.1465 75.3555 45.3711 73.7773 44.1875C73.1855 43.9902 72.9883 43.3984 73.1855 43.0039C73.3828 42.4121 73.7773 42.0176 74.3691 42.0176H92.9121C93.5039 42.0176 94.0957 42.6094 94.0957 43.2012V46.9492C94.0957 49.3164 92.123 51.2891 89.9531 51.2891ZM78.709 48.9219H89.9531C90.9395 48.9219 91.7285 48.1328 91.7285 46.9492V44.582H77.1309C78.1172 45.7656 78.5117 47.3438 78.709 48.9219ZM63.7168 51.2891H54.6426C54.248 51.2891 53.8535 51.0918 53.6562 50.8945C53.459 50.5 53.2617 50.3027 53.459 49.9082V49.1191C53.459 47.1465 52.4727 45.3711 50.8945 44.1875C50.5 43.9902 50.3027 43.3984 50.5 43.0039C50.5 42.4121 51.0918 42.0176 51.4863 42.0176H66.6758C67.2676 42.0176 67.6621 42.4121 67.8594 43.0039C67.8594 43.3984 67.6621 43.9902 67.2676 44.1875C65.6895 45.3711 64.7031 47.1465 64.7031 49.1191V49.9082C64.9004 50.3027 64.7031 50.5 64.5059 50.8945C64.3086 51.0918 63.9141 51.2891 63.7168 51.2891ZM55.8262 48.9219H62.3359C62.5332 47.3438 62.9277 45.7656 63.9141 44.3848H54.4453C55.2344 45.7656 55.8262 47.3438 55.8262 48.9219ZM40.834 51.2891H32.1543C31.3652 51.2891 30.9707 50.6973 30.9707 50.1055V43.2012C30.9707 42.6094 31.3652 42.0176 32.1543 42.0176H43.793C44.3848 42.0176 44.7793 42.4121 44.9766 43.0039C45.1738 43.3984 44.9766 43.9902 44.582 44.1875C42.8066 45.3711 42.0176 47.1465 42.0176 49.1191V49.9082C42.0176 50.3027 42.0176 50.5 41.623 50.8945C41.4258 51.0918 41.2285 51.2891 40.834 51.2891ZM33.3379 48.9219H39.6504C39.6504 47.3438 40.0449 45.7656 41.0312 44.3848H33.3379V48.9219Z" fill="#ED1C24"></path>
  <path fill-rule="evenodd" clip-rule="evenodd" d="M97.0547 44.3848H74.3691C74.1719 44.3848 73.9746 44.3848 73.7773 44.1875C72.791 43.5957 71.6074 43.3984 70.4238 43.3984C69.4375 43.3984 68.2539 43.5957 67.2676 44.1875C67.0703 44.3848 66.873 44.3848 66.6758 44.3848H51.4863C51.2891 44.3848 51.0918 44.3848 50.8945 44.1875C49.9082 43.5957 48.9219 43.3984 47.7383 43.3984C46.5547 43.3984 45.3711 43.5957 44.582 44.1875C44.3848 44.3848 44.1875 44.3848 43.793 44.3848H32.1543C31.3652 44.3848 30.9707 43.9902 30.9707 43.2012V32.7461C30.9707 32.1543 31.3652 31.5625 32.1543 31.5625H94.0957C96.2656 31.5625 98.2383 33.5352 98.2383 35.7051V43.2012C98.2383 43.9902 97.6465 44.3848 97.0547 44.3848ZM74.7637 42.0176H95.8711V35.7051C95.8711 34.7188 95.082 33.9297 94.0957 33.9297H33.3379V42.2148H43.5957C44.7793 41.4258 46.1602 41.0312 47.7383 41.0312C49.1191 41.0312 50.6973 41.4258 51.8809 42.2148H66.2812C67.6621 41.4258 69.043 41.0312 70.4238 41.0312C72.002 41.0312 73.3828 41.4258 74.7637 42.0176ZM16.5703 57.207C12.2305 57.207 8.48242 53.6562 8.48242 49.1191C8.48242 44.582 12.2305 41.0312 16.7676 41.0312C21.1074 41.0312 24.8555 44.582 24.8555 49.1191C24.8555 53.6562 21.1074 57.207 16.5703 57.207ZM16.5703 43.3984C13.4141 43.3984 10.8496 45.9629 10.8496 49.1191C10.8496 52.2754 13.4141 54.8398 16.7676 54.8398C19.9238 54.8398 22.4883 52.2754 22.4883 49.1191C22.4883 45.9629 19.9238 43.3984 16.5703 43.3984Z" fill="#ED1C24"></path>
  <path fill-rule="evenodd" clip-rule="evenodd" d="M16.5703 53.0645C14.4004 53.0645 12.625 51.2891 12.625 49.1191C12.625 46.752 14.4004 44.9766 16.5703 44.9766C18.9375 44.9766 20.7129 46.752 20.7129 49.1191C20.7129 51.2891 18.9375 53.0645 16.5703 53.0645ZM16.5703 47.3438C15.7812 47.3438 14.9922 48.1328 14.9922 49.1191C14.9922 50.1055 15.7812 50.6973 16.5703 50.6973C17.5566 50.6973 18.3457 50.1055 18.3457 49.1191C18.3457 48.1328 17.5566 47.3438 16.5703 47.3438ZM47.7383 57.207C43.2012 57.207 39.6504 53.6562 39.6504 49.1191C39.6504 44.582 43.2012 41.0312 47.7383 41.0312C52.2754 41.0312 55.8262 44.582 55.8262 49.1191C55.8262 53.6562 52.2754 57.207 47.7383 57.207ZM47.7383 43.3984C44.582 43.3984 42.0176 45.9629 42.0176 49.1191C42.0176 52.2754 44.582 54.8398 47.7383 54.8398C50.8945 54.8398 53.459 52.2754 53.459 49.1191C53.459 45.9629 50.8945 43.3984 47.7383 43.3984Z" fill="#ED1C24"></path>
  <path fill-rule="evenodd" clip-rule="evenodd" d="M47.7383 53.0645C45.3711 53.0645 43.5957 51.2891 43.5957 49.1191C43.5957 46.752 45.3711 44.9766 47.7383 44.9766C49.9082 44.9766 51.6836 46.752 51.6836 49.1191C51.6836 51.2891 49.9082 53.0645 47.7383 53.0645ZM47.7383 47.3438C46.752 47.3438 45.9629 48.1328 45.9629 49.1191C45.9629 50.1055 46.752 50.6973 47.7383 50.6973C48.7246 50.6973 49.3164 50.1055 49.3164 49.1191C49.3164 48.1328 48.7246 47.3438 47.7383 47.3438ZM70.4238 57.207C66.084 57.207 62.3359 53.6562 62.3359 49.1191C62.3359 44.582 66.084 41.0312 70.4238 41.0312C74.9609 41.0312 78.709 44.582 78.709 49.1191C78.709 53.6562 74.9609 57.207 70.4238 57.207ZM70.4238 43.3984C67.2676 43.3984 64.7031 45.9629 64.7031 49.1191C64.7031 52.2754 67.2676 54.8398 70.4238 54.8398C73.7773 54.8398 76.3418 52.2754 76.3418 49.1191C76.3418 45.9629 73.7773 43.3984 70.4238 43.3984Z" fill="#ED1C24"></path>
  <path fill-rule="evenodd" clip-rule="evenodd" d="M70.4238 53.0645C68.2539 53.0645 66.4785 51.2891 66.4785 49.1191C66.4785 46.752 68.2539 44.9766 70.4238 44.9766C72.791 44.9766 74.5664 46.752 74.5664 49.1191C74.5664 51.2891 72.791 53.0645 70.4238 53.0645ZM70.4238 47.3438C69.6348 47.3438 68.8457 48.1328 68.8457 49.1191C68.8457 50.1055 69.6348 50.6973 70.4238 50.6973C71.4102 50.6973 72.1992 50.1055 72.1992 49.1191C72.1992 48.1328 71.4102 47.3438 70.4238 47.3438ZM93.1094 33.9297H39.8477C39.2559 33.9297 38.6641 33.3379 38.6641 32.7461C38.6641 32.1543 39.2559 31.5625 39.8477 31.5625H92.3203L98.6328 22.291V13.2168H50.6973C50.3027 13.2168 49.9082 13.0195 49.7109 12.8223L44.582 5.12891H30.7734C30.1816 5.12891 29.5898 4.53711 29.5898 3.94531C29.5898 3.15625 30.1816 2.76172 30.7734 2.76172H45.1738C45.5684 2.76172 45.9629 2.95898 46.1602 3.15625L51.2891 10.8496H99.8164C100.408 10.8496 101 11.4414 101 12.0332V22.6855C101 22.8828 100.803 23.0801 100.803 23.2773L94.0957 33.3379C93.7012 33.7324 93.5039 33.9297 93.1094 33.9297Z" fill="#ED1C24"></path>
  <path fill-rule="evenodd" clip-rule="evenodd" d="M90.1504 13.2168C89.5586 13.2168 89.1641 12.8223 88.9668 12.2305C88.7695 6.70703 81.2734 2.36719 72.5938 2.36719C63.9141 2.36719 56.418 6.70703 56.0234 12.2305C56.0234 12.8223 55.4316 13.2168 54.8398 13.2168C54.248 13.2168 53.6562 12.625 53.6562 12.0332C54.248 5.32617 62.5332 0 72.5938 0C82.6543 0 90.9395 5.32617 91.334 12.0332C91.5312 12.625 90.9395 13.2168 90.3477 13.2168H90.1504ZM39.8477 33.9297C39.2559 33.9297 38.6641 33.3379 38.6641 32.7461V3.94531C38.6641 3.15625 39.2559 2.76172 39.8477 2.76172C40.4395 2.76172 41.0312 3.15625 41.0312 3.94531V32.7461C41.0312 33.3379 40.4395 33.9297 39.8477 33.9297Z" fill="#ED1C24"></path>
</svg>
