<?xml version="1.0" encoding="UTF-8"?>
<svg xmlns="http://www.w3.org/2000/svg" width="107" height="117" viewBox="0 0 107 117" fill="none">
  <path fill-rule="evenodd" clip-rule="evenodd" d="M93.3299 89.7224C96.3376 86.1552 98.2645 83.6187 99.1107 82.1129C101.871 77.8645 104.053 72.7601 105.657 66.7997C106.246 65.1958 105.478 64.8522 103.354 65.769L100.318 66.947C99.1488 67.4987 97.8993 67.8615 96.6164 68.0218C94.3632 68.3058 92.1734 68.9647 90.1377 69.9713C86.6275 71.6283 83.5746 74.1383 80.9793 77.5013C78.5115 80.2695 75.7767 85.204 72.7749 92.305C70.0794 97.6627 66.0783 102.496 60.7717 106.805C67.2086 105.954 73.4354 103.932 79.1446 100.839C84.7182 97.7569 89.4467 94.0513 93.3299 89.7224Z" fill="#ED1C24"></path>
  <path fill-rule="evenodd" clip-rule="evenodd" d="M68.9199 92.1106C61.5283 103.89 51.7936 111.933 39.7158 116.241C37.4778 116.894 37.5759 116.312 40.0103 114.494C45.1815 110.301 48.7487 105.672 50.7119 100.607C53.8531 93.8157 56.4328 89.0058 58.451 86.1768C59.7604 84.351 60.7725 82.96 61.4871 82.0039C62.9477 80.0113 62.8211 79.7079 61.1072 81.094C56.0833 84.5277 52.7458 87.7395 51.0947 90.7295C35.3241 90.3761 24.65 89.6173 19.0725 88.4531C14.5826 87.2575 11.3953 85.8126 9.51058 84.1183C4.66337 76.7896 1.71852 69.4697 0.676047 62.1586C-0.345127 55.7548 -0.208475 49.2196 1.07949 42.864C2.82088 33.8901 7.00353 25.566 13.6275 17.8917C25.0142 5.63529 39.0179 -0.324095 55.6386 0.0135807C45.0568 1.13262 36.4814 4.79797 29.9125 11.0096C22.3383 18.5249 18.3353 27.2338 17.9034 37.1363C17.9898 47.1016 20.2985 55.0292 24.8297 60.9189C29.0801 65.8839 33.7182 69.0015 38.7441 70.2717C44.4099 71.3848 50.0297 70.6486 55.6033 68.063L69.8563 60.536C78.4023 55.3354 87.3006 53.1278 96.5513 53.9131C103.829 55.0498 107.305 56.8697 106.979 59.3728C106.83 60.9905 105.128 62.3147 101.873 63.3454C96.4659 64.808 92.9861 65.6777 91.4332 65.9545C87.0218 66.9087 83.1081 69.3509 79.6921 73.2813C74.6015 79.1553 71.0107 85.4317 68.9199 92.1106Z" fill="#386EB6"></path>
  <path fill-rule="evenodd" clip-rule="evenodd" d="M15.2087 91.0475C21.8327 98.2604 31.0981 103.317 43.0051 106.216C45.7968 103.299 47.8769 99.402 49.2452 94.5254C37.7914 95.0127 26.3273 93.8413 15.2087 91.0475Z" fill="#ED1C24"></path>
  <path fill-rule="evenodd" clip-rule="evenodd" d="M82.6193 34.7451V37.581L82.6458 43.4088H78.8499V32.3362C78.8499 31.3232 79.3151 30.4584 80.2457 29.7418C81.2259 29.0078 82.4259 28.6278 83.6499 28.664H98.0326C99.2513 28.6299 100.446 29.0086 101.422 29.7388C102.357 30.4554 102.823 31.3202 102.821 32.3333V43.4059H99.0103V34.695C99.0103 34.1532 98.705 33.68 98.0944 33.2756C97.4098 32.8483 96.6128 32.636 95.8063 32.666H85.7938C85.016 32.6571 84.2522 32.8728 83.594 33.2874C82.9442 33.7036 82.6193 34.1895 82.6193 34.7451Z" fill="#1A5CAA"></path>
  <path fill-rule="evenodd" clip-rule="evenodd" d="M72.0383 39.3626H75.3925V43.3676H56.2098C54.9857 43.4042 53.7855 43.0242 52.8055 42.2898C51.871 41.5712 51.4048 40.7054 51.4067 39.6924V32.295C51.4067 31.2819 51.873 30.4162 52.8055 29.6976C53.7859 28.9642 54.9861 28.5853 56.2098 28.6227L70.5924 28.6463L75.3925 28.6227V32.5217H58.4449C57.6502 32.4973 56.8652 32.7017 56.1833 33.1107C55.5727 33.5033 55.2517 33.9686 55.2203 34.5065V37.3424C55.2203 37.8843 55.5148 38.3555 56.1332 38.7618C56.8182 39.1881 57.6152 39.3994 58.4214 39.3685H72.0383V39.3626Z" fill="#ED1C24"></path>
  <path fill-rule="evenodd" clip-rule="evenodd" d="M24.7031 32.5217V28.6227H29.5062L43.8858 28.6463C45.1021 28.5848 46.3056 28.9185 47.3166 29.5975C48.2315 30.2473 48.6889 31.222 48.6889 32.5217V34.1944C48.6889 35.4783 48.2864 36.3824 47.4815 36.9066C46.6766 37.4307 45.4702 37.6919 43.8623 37.6899H28.5138V43.3646H24.7031V34.1944H44.7281V32.5217H24.7031Z" fill="#1A5CAA"></path>
  <path fill-rule="evenodd" clip-rule="evenodd" d="M27.4478 46.4037C27.8692 46.3944 28.2878 46.4747 28.6758 46.6393C28.9178 46.7536 29.1329 46.9177 29.3071 47.1208C29.4813 47.3239 29.6107 47.5615 29.6869 47.818C29.763 48.0745 29.7842 48.3442 29.749 48.6095C29.7138 48.8748 29.6231 49.1296 29.4827 49.3574C29.2834 49.6523 29.0032 49.8834 28.6758 50.023C28.2878 50.1876 27.8692 50.2679 27.4478 50.2585H26.5379V51.622H25.0654V46.4037H27.4478ZM27.3565 49.0953C27.6015 49.1139 27.845 49.0439 28.0427 48.898C28.1209 48.8275 28.1824 48.7404 28.2226 48.6431C28.2629 48.5458 28.2809 48.4407 28.2753 48.3356C28.2809 48.2295 28.263 48.1235 28.2228 48.0253C28.1825 47.927 28.121 47.8389 28.0427 47.7672C27.8454 47.6203 27.6019 47.5492 27.3565 47.567H26.5379V49.0953H27.3565ZM34.6185 50.4824V51.622H30.428V46.4037H34.5213V47.5434H31.8886V48.4268H34.2062V49.5312H31.8886V50.4853L34.6185 50.4824ZM40.1637 51.622V48.8568L38.8237 51.1067H38.167L36.8242 48.9157V51.622H35.4696V46.4037H36.6828L38.5057 49.4163L40.2962 46.4037H41.5094L41.5242 51.622H40.1637ZM45.1699 51.728C44.6579 51.7357 44.152 51.6163 43.6975 51.3805C43.2733 51.1593 42.9185 50.825 42.6727 50.4146C42.4277 49.988 42.2989 49.5048 42.2989 49.0129C42.2989 48.521 42.4277 48.0377 42.6727 47.6111C42.9185 47.2007 43.2733 46.8664 43.6975 46.6452C44.1246 46.4351 44.5915 46.3183 45.0673 46.3025C45.543 46.2868 46.0167 46.3725 46.4568 46.5539C46.8305 46.7158 47.1591 46.9665 47.4139 47.2842L46.4744 48.1324C46.33 47.9429 46.1437 47.7894 45.9302 47.6837C45.7168 47.5779 45.4817 47.5229 45.2435 47.5228C44.9794 47.5181 44.7186 47.582 44.4867 47.7083C44.2679 47.8309 44.089 48.0139 43.9713 48.2354C43.8523 48.4778 43.7904 48.7443 43.7904 49.0143C43.7904 49.2844 43.8523 49.5509 43.9713 49.7933C44.0899 50.0134 44.2686 50.1952 44.4867 50.3174C44.7186 50.4438 44.9794 50.5077 45.2435 50.503C45.4817 50.5029 45.7168 50.4478 45.9302 50.3421C46.1437 50.2364 46.33 50.0828 46.4744 49.8934L47.4139 50.7415C47.1591 51.0593 46.8305 51.31 46.4568 51.4718C46.0509 51.6478 45.6122 51.7351 45.1699 51.728ZM52.2375 47.5758H50.6444V51.622H49.1896V47.5758H47.5876V46.3979H52.2375V47.5758ZM55.3031 46.3979C55.7245 46.3885 56.1431 46.4688 56.5311 46.6334C56.773 46.7477 56.9881 46.9118 57.1624 47.1149C57.3366 47.318 57.466 47.5556 57.5421 47.8121C57.6183 48.0686 57.6395 48.3383 57.6043 48.6036C57.5691 48.8689 57.4784 49.1237 57.338 49.3515C57.1379 49.6457 56.858 49.8766 56.5311 50.0171C56.1431 50.1817 55.7245 50.262 55.3031 50.2527H54.4079V51.6161H52.9354V46.4037L55.3031 46.3979ZM55.2118 49.0894C55.4568 49.108 55.7003 49.038 55.898 48.8921C55.9758 48.8215 56.0369 48.7343 56.0766 48.637C56.1164 48.5396 56.1338 48.4346 56.1276 48.3297C56.1336 48.2239 56.1162 48.118 56.0765 48.0198C56.0367 47.9215 55.9758 47.8333 55.898 47.7613C55.7007 47.6144 55.4571 47.5433 55.2118 47.5611H54.4079V49.0894H55.2118ZM60.9219 51.7221C60.4098 51.7272 59.9043 51.6068 59.4494 51.3717C59.0182 51.1457 58.657 50.8061 58.405 50.3895C58.153 49.9729 58.0197 49.4953 58.0197 49.0085C58.0197 48.5216 58.153 48.044 58.405 47.6274C58.657 47.2109 59.0182 46.8712 59.4494 46.6452C59.9113 46.4147 60.4204 46.2948 60.9366 46.2948C61.4528 46.2948 61.9619 46.4147 62.4237 46.6452C62.855 46.8712 63.2162 47.2109 63.4682 47.6274C63.7202 48.044 63.8534 48.5216 63.8534 49.0085C63.8534 49.4953 63.7202 49.9729 63.4682 50.3895C63.2162 50.8061 62.855 51.1457 62.4237 51.3717C61.9646 51.6095 61.4536 51.7299 60.9366 51.7221H60.9219ZM60.9219 50.4971C61.1727 50.5008 61.42 50.4367 61.6374 50.3115C61.8517 50.1872 62.0271 50.0057 62.144 49.7874C62.2677 49.5464 62.3323 49.2794 62.3323 49.0085C62.3323 48.7375 62.2677 48.4705 62.144 48.2295C62.028 48.0097 61.8525 47.827 61.6374 47.7024C61.42 47.5773 61.1727 47.5132 60.9219 47.5169C60.6711 47.514 60.4241 47.5781 60.2063 47.7024C59.9919 47.8279 59.8166 48.0104 59.6997 48.2295C59.5778 48.4711 59.5143 48.7379 59.5143 49.0085C59.5143 49.279 59.5778 49.5458 59.6997 49.7874C59.8175 50.0051 59.9927 50.1864 60.2063 50.3115C60.4241 50.4359 60.6711 50.4999 60.9219 50.4971ZM64.6117 46.3979H66.0665V49.4693L68.2192 46.4037H69.6062V51.622H68.1603V48.5653L66.0135 51.622H64.6206V46.4037L64.6117 46.3979ZM67.1031 46.0857C66.6941 46.1224 66.2848 46.0185 65.9428 45.7912C65.8191 45.6752 65.7236 45.5322 65.6639 45.3734C65.6041 45.2146 65.5817 45.0442 65.5983 44.8754H66.5877C66.5815 45.0175 66.63 45.1566 66.7232 45.2641C66.7787 45.3109 66.8429 45.3462 66.9122 45.3679C66.9815 45.3896 67.0544 45.3974 67.1266 45.3907C67.2741 45.4014 67.4203 45.3562 67.536 45.2641C67.6324 45.1581 67.6831 45.0185 67.6773 44.8754H68.6668C68.6789 45.0453 68.6518 45.2158 68.5874 45.3736C68.5231 45.5314 68.4233 45.6723 68.2957 45.7853C67.948 46.0146 67.5325 46.1184 67.1178 46.0798L67.1031 46.0857ZM75.6225 46.3979V51.6161H74.1501V47.5758H72.1653V51.622H70.7135V46.4037L75.6225 46.3979ZM79.1269 46.3979C79.5483 46.3885 79.9669 46.4688 80.3549 46.6334C80.5968 46.7477 80.8119 46.9118 80.9862 47.1149C81.1604 47.318 81.2898 47.5556 81.3659 47.8121C81.4421 48.0686 81.4633 48.3383 81.4281 48.6036C81.3929 48.8689 81.3021 49.1237 81.1618 49.3515C80.9617 49.6457 80.6818 49.8766 80.3549 50.0171C79.9669 50.1817 79.5483 50.262 79.1269 50.2527H78.2169V51.6161H76.7445V46.4037L79.1269 46.3979ZM79.0356 49.0894C79.2806 49.108 79.5241 49.038 79.7217 48.8921C79.7996 48.8215 79.8607 48.7343 79.9004 48.637C79.9402 48.5396 79.9576 48.4346 79.9514 48.3297C79.9574 48.2239 79.9399 48.118 79.9002 48.0198C79.8605 47.9215 79.7996 47.8333 79.7217 47.7613C79.5245 47.6144 79.2809 47.5433 79.0356 47.5611H78.2169V49.0894H79.0356ZM84.7457 51.7221C84.2336 51.7275 83.728 51.6072 83.2732 51.3717C82.842 51.1457 82.4808 50.8061 82.2288 50.3895C81.9768 49.9729 81.8435 49.4953 81.8435 49.0085C81.8435 48.5216 81.9768 48.044 82.2288 47.6274C82.4808 47.2109 82.842 46.8712 83.2732 46.6452C83.7351 46.4147 84.2442 46.2948 84.7604 46.2948C85.2765 46.2948 85.7857 46.4147 86.2475 46.6452C86.6788 46.8712 87.04 47.2109 87.292 47.6274C87.544 48.044 87.6772 48.5216 87.6772 49.0085C87.6772 49.4953 87.544 49.9729 87.292 50.3895C87.04 50.8061 86.6788 51.1457 86.2475 51.3717C85.7883 51.6095 85.2774 51.7299 84.7604 51.7221H84.7457ZM84.7457 50.4971C84.9965 50.5004 85.2436 50.4363 85.4612 50.3115C85.6755 50.1872 85.8508 50.0057 85.9678 49.7874C86.0897 49.5458 86.1532 49.279 86.1532 49.0085C86.1532 48.7379 86.0897 48.4711 85.9678 48.2295C85.8518 48.0097 85.6763 47.827 85.4612 47.7024C85.2424 47.5807 84.9961 47.5168 84.7457 47.5168C84.4952 47.5168 84.2489 47.5807 84.0301 47.7024C83.815 47.827 83.6395 48.0097 83.5235 48.2295C83.4016 48.4711 83.3381 48.7379 83.3381 49.0085C83.3381 49.279 83.4016 49.5458 83.5235 49.7874C83.6404 50.0057 83.8158 50.1872 84.0301 50.3115C84.2479 50.4359 84.4949 50.4999 84.7457 50.4971ZM92.6261 50.4765V51.6161H88.4444V46.4037H92.5377V47.5434H89.905V48.4268H92.2226V49.5312H89.905V50.4853L92.6261 50.4765ZM95.5709 49.6195H94.8995V51.6161H93.427V46.4037H94.8995V48.4327H95.6357L96.8784 46.4037H98.4303L96.7989 48.9245L98.4451 51.622H96.7812L95.6033 49.6254L95.5709 49.6195ZM103.033 47.5581V46.3802H98.3803V47.5581H99.9852V51.6043H101.437V47.5758L103.033 47.5581Z" fill="#1A5CAA"></path>
  <path fill-rule="evenodd" clip-rule="evenodd" d="M81.1735 7.28738C88.942 12.1798 95.1556 18.306 99.8144 25.6662L60.6155 25.781C57.4744 25.8006 55.6093 25.0517 55.0203 23.5341C54.1624 24.8887 52.5604 25.5493 50.2144 25.516L25.5483 25.3658C28.3577 19.3642 32.6768 14.3432 38.5057 10.3029C44.8253 6.26258 51.5003 3.78498 58.5306 2.87012C67.1943 2.19869 74.742 3.67111 81.1735 7.28738Z" fill="#ED1C24"></path>
</svg>
